<?xml version="1.0" encoding="UTF-8"?>
<svg width="188px" height="33px" viewBox="0 0 188 33" version="1.1" xmlns="http://www.w3.org/2000/svg" xmlns:xlink="http://www.w3.org/1999/xlink">
    <title>sony-2-logo-svgrepo-com</title>
    <g id="Page-1" stroke="none" stroke-width="1" fill="none" fill-rule="evenodd">
        <g id="sony-2-logo-svgrepo-com" transform="translate(0.793, 0.095)" fill="#FFFFFF" fill-rule="nonzero">
            <path d="M184.242,26.347 C183.210529,26.327683 182.249035,26.8669115 181.727643,27.7571112 C181.20625,28.647311 181.20625,29.749689 181.727643,30.6398888 C182.249035,31.5300885 183.210529,32.069317 184.242,32.05 C184.998461,32.0492085 185.723507,31.7473965 186.257091,31.2111857 C186.790675,30.6749749 187.088923,29.9484558 187.086021,29.192 C187.086265,28.4375511 186.786748,27.7139116 186.253365,27.1803418 C185.719983,26.6467721 184.996449,26.347 184.242,26.347 L184.242,26.347 Z M184.242,31.7070018 C183.575377,31.7078037 182.935928,31.4428648 182.465211,30.9708341 C181.994494,30.4988035 181.731338,29.8586185 181.73398,29.192 C181.734264,28.5275608 181.998807,27.8905135 182.469293,27.421341 C182.939778,26.9521685 183.577563,26.6894066 184.242,26.6909928 C184.905215,26.6909928 185.541251,26.9545293 186.010121,27.4235866 C186.47899,27.8926438 186.742265,28.5287855 186.742029,29.192 C186.745191,29.857394 186.483304,30.4966731 186.014203,30.9685884 C185.545102,31.4405036 184.907401,31.7062101 184.242,31.7070018 L184.242,31.7070018 Z" id="Shape"></path>
            <path d="M185.705,28.445 C185.705,28.176 185.586,27.893 185.348,27.758 C185.108,27.616 184.84,27.602 184.571,27.602 L183.182,27.602 L183.182,30.789 L183.571,30.789 L183.571,29.319 L184.288,29.319 L185.198,30.789 L185.661,30.789 L184.698,29.319 C185.266,29.303 185.705,29.072 185.705,28.445 L185.705,28.445 Z M184.168,29.012 L183.57,29.012 L183.57,27.885 L184.48,27.885 C184.876,27.885 185.310001,27.945 185.310001,28.438 C185.311,29.087 184.615,29.012 184.168,29.012 Z M167.527,13.037 L173.357,6.812 C173.695,6.355 173.863,6.035 173.863,5.761 C173.863,5.304 173.47,5.121 172.234,5.121 L170.763,5.121 L170.763,1.191 L186.685,1.191 L186.685,5.121 L184.593,5.121 C182.177,5.121 181.728,5.486 178.357,9.736 L169.134,19.696 L169.134,25.774 C169.134,27.329 169.919,27.876 172.167,27.876 L175.649,27.876 L175.649,31.668 L153.348,31.668 L153.348,27.876 L156.83,27.876 C159.076,27.876 159.863,27.329 159.863,25.774 L159.863,19.696 L149,7.679 C147.205,5.578 147.453,5.121 142.455,5.121 L142.455,1.191 L162.623,1.191 L162.623,5.121 L161.187,5.121 C159.726,5.121 159.107,5.395 159.107,5.943 C159.107,6.401 159.556,6.766 159.837,7.131 L165.333,13.121 C165.986,13.8 166.783,13.888 167.527,13.037 L167.527,13.037 Z M32.21,1.19 L37.075,1.19 L37.075,12.156 L32.582,12.156 C32.184,9.964 30.812,9.111 29.561,7.961 C27.304,5.887 22.416,4.16 18.305,4.16 C12.999,4.16 8.521,5.806 8.521,8.226 C8.521,14.944 38.866,9.598 38.866,22.3 C38.866,28.925 32.366,32.626 20.693,32.626 C16.652,32.626 10.537,31.372 6.929,29.456 C5.798,28.803 5.318,30.074 5.106,31.667 L0.118,31.667 L0.118,20.335 L4.63,20.335 C5.625,23.214 6.996,23.807 8.257,24.95 C10.445,26.961 15.653,28.424 20.429,28.377 C27.63,28.306 30.106,26.732 30.106,24.447 C30.106,22.163 27.657,21.614 19.766,20.381 L13.066,19.284 C5.505,18.141 0,16.451 0,10.42 C0,4.16 6.964,0.23 17.975,0.23 C22.615,0.23 26.497,0.85 30.223,2.956 C31.255,3.627 32.223,3.707 32.21,1.19 Z M127.154,19.55 L127.25,7.362 C127.25,5.763 126.418,5.215 124.041,5.215 L121.248,5.215 L121.248,1.423 L139.018,1.423 L139.018,5.215 L136.702,5.215 C134.323,5.215 133.491,5.764 133.491,7.362 L133.491,31.899 L126.536,31.844 L104.012,10.515 L104.012,26.005 C104.012,27.559 104.844,28.152 107.221,28.152 L110.313,28.152 L110.313,31.899 L91.858,31.899 L91.858,28.152 L94.916,28.152 C97.293,28.152 98.125,27.558 98.125,26.005 L98.125,7.362 C98.125,5.763 97.293,5.215 94.916,5.215 L91.858,5.215 L91.858,1.423 L107.814,1.423 L127.154,19.55 L127.154,19.55 Z M67.631,0 C53.469,0 44.604,6.261 44.604,16.312 C44.604,26.183 53.346,32.396 67.199,32.396 C81.913,32.396 90.472,26.274 90.472,15.81 C90.473,6.398 81.237,0 67.631,0 Z M67.309,28.422 C59.47,28.422 54.964,23.898 54.964,16.084 C54.964,8.454 59.666,3.93 67.701,3.93 C75.409,3.93 79.915,8.546 79.915,16.405 C79.915,24.081 75.343,28.422 67.309,28.422 Z" id="Shape"></path>
        </g>
    </g>
</svg>